<svg version="1.1" id="Layer_1" xmlns="http://www.w3.org/2000/svg" xmlns:xlink="http://www.w3.org/1999/xlink" x="0px" y="0px"
	 width="100%" viewBox="0 0 1024 1024" enable-background="new 0 0 1024 1024" xml:space="preserve">
<path fill="#000000" opacity="1.000000" stroke="none" 
	d="
M433.000061,469.740051 
	C482.164032,469.733643 530.828125,469.786194 579.491882,469.696136 
	C604.588806,469.649689 625.619507,452.632599 631.006165,428.318909 
	C637.645996,398.348114 613.711304,366.724609 583.005432,366.365234 
	C533.848450,365.789825 484.680420,366.169220 435.517059,366.147217 
	C423.517731,366.141846 411.512848,366.380737 399.520111,366.099304 
	C365.877350,365.309875 342.164978,381.429077 325.525177,409.427185 
	C319.529602,419.515381 315.499329,430.446930 314.237823,442.248749 
	C314.132965,443.229767 314.018402,444.254608 312.540100,444.883698 
	C311.221466,443.665466 311.717438,441.953217 311.716614,440.457977 
	C311.701172,412.959839 311.701172,385.461639 311.730621,357.963531 
	C311.788635,303.821045 350.875214,257.005432 404.149902,247.362320 
	C409.705322,246.356766 415.323273,245.681030 421.016479,245.685013 
	C476.013428,245.723526 531.049377,244.400467 585.997498,246.038452 
	C654.430725,248.078461 704.296265,281.365692 735.415405,342.263306 
	C749.970764,370.747040 754.593628,401.453949 751.982605,433.038483 
	C748.460144,475.648102 731.465759,512.224976 700.723450,542.309082 
	C674.476379,567.994385 643.169189,583.345947 607.044861,588.956055 
	C597.348328,590.461853 587.486206,590.891479 577.653809,590.899414 
	C536.322815,590.932678 494.991791,590.880859 453.660797,590.886475 
	C443.773682,590.887817 438.092590,594.450317 435.065094,602.212952 
	C434.057709,604.795898 434.144226,607.434814 434.143524,610.091675 
	C434.134308,645.089722 434.323029,680.089111 434.062836,715.085266 
	C433.903290,736.547424 425.510315,754.385254 407.937073,767.071716 
	C376.640259,789.665527 334.069153,778.089355 317.852631,742.903931 
	C313.740875,733.982483 311.747314,724.584229 311.734650,714.812988 
	C311.674469,668.315735 311.656769,621.818176 311.708282,575.320862 
	C311.767609,521.769775 352.270844,476.711578 405.557129,470.527863 
	C414.554413,469.483765 423.521515,470.014954 433.000061,469.740051 
z"/>
</svg>